<?xml version="1.0" encoding="UTF-8"?>
<svg width="54px" height="54px" viewBox="0 0 54 54" version="1.1" xmlns="http://www.w3.org/2000/svg" xmlns:xlink="http://www.w3.org/1999/xlink">
    <!-- Generator: Sketch 54.1 (76490) - https://sketchapp.com -->
    <title>delivery_order</title>
    <desc>Created with Sketch.</desc>
    <defs>
        <linearGradient x1="50%" y1="100%" x2="50%" y2="0%" id="linearGradient-1">
            <stop stop-color="#FFE3C5" offset="0%"></stop>
            <stop stop-color="#FFF3E6" offset="74.5%"></stop>
            <stop stop-color="#FFF8F1" offset="100%"></stop>
        </linearGradient>
        <linearGradient x1="50%" y1="100%" x2="50%" y2="0%" id="linearGradient-2">
            <stop stop-color="#E67500" offset="0%"></stop>
            <stop stop-color="#F18719" offset="100%"></stop>
        </linearGradient>
    </defs>
    <g id="Page-1" stroke="none" stroke-width="1" fill="none" fill-rule="evenodd">
        <g id="delivery_order" transform="translate(0.000000, -1.000000)" fill-rule="nonzero">
            <circle id="Oval" fill="url(#linearGradient-1)" cx="27" cy="28.001" r="27"></circle>
            <path d="M29.66,16.943 L30.19,17.208 L30.19,13 L28.271,13 L28.271,17.208 L28.801,16.943 C29.071362,16.8077501 29.389638,16.8077501 29.66,16.943 L29.66,16.943 Z M23.473,26.443 L34.988,26.443 C35.2426892,26.4432657 35.4870234,26.3422085 35.6671159,26.1621159 C35.8472085,25.9820234 35.9482657,25.7376892 35.948,25.483 L35.948,13.96 C35.9482657,13.7053108 35.8472085,13.4609766 35.6671159,13.2808841 C35.4870234,13.1007915 35.2426892,12.9997343 34.988,13 L32.109,13 L32.109,18.763 C32.109065,19.0956832 31.9368832,19.4046843 31.6539361,19.5796674 C31.3709891,19.7546505 31.0176172,19.7706678 30.72,19.622 L29.23,18.876 L27.74,19.622 C27.4423828,19.7706678 27.0890109,19.7546505 26.8060639,19.5796674 C26.5231168,19.4046843 26.350935,19.0956832 26.351,18.763 L26.351,13 L23.472,13 C22.9418066,13 22.512,13.4298066 22.512,13.96 L22.512,25.485 C22.512,26.0151934 22.9418066,26.445 23.472,26.445 L23.473,26.443 Z M42.991,27.881 C41.4437416,27.2896159 39.6934077,27.6628691 38.522,28.834 L34.64,32.72 C33.7424794,33.6235935 32.520583,34.1302862 31.247,34.127 L25.955,34.127 C25.4245305,34.127 24.9945,33.6969695 24.9945,33.1665 C24.9945,32.6360305 25.4245305,32.206 25.955,32.206 L31.29,32.206 C32.9688443,32.2054288 34.5031845,31.2560969 35.253,29.754 C35.4020637,29.4564578 35.3863953,29.1029401 35.2115929,28.819752 C35.0367905,28.536564 34.7277932,28.3641083 34.395,28.364 L23.595,28.364 C22.7604977,28.3639276 21.9404427,28.5817817 21.216,28.996 L11.491,34.483 C11.2585897,34.6144116 11.0913243,34.8365863 11.0292959,35.0962708 C10.9672675,35.3559553 11.0160679,35.6297397 11.164,35.852 L14.998,41.618 C15.2886501,42.0540149 15.8752429,42.1764071 16.316,41.893 L22.398,37.972 L32.835,37.972 C34.1078133,37.9714099 35.3282801,37.4653101 36.228,36.565 L43.328,29.465 C43.56005,29.2347202 43.659116,28.902267 43.5909623,28.5825311 C43.5228086,28.2627952 43.2967843,27.999637 42.991,27.884 L42.991,27.881 Z" id="Shape" fill="url(#linearGradient-2)"></path>
        </g>
    </g>
</svg>