<svg xmlns="http://www.w3.org/2000/svg" xmlns:xlink="http://www.w3.org/1999/xlink" width="54" height="54" viewBox="0 0 54 54"><defs><style>.a{fill:url(#a);}.b{fill:url(#b);}</style><linearGradient id="a" x1="0.5" y1="1" x2="0.5" gradientUnits="objectBoundingBox"><stop offset="0" stop-color="#ffe3c5"/><stop offset="0.745" stop-color="#fff3e6"/><stop offset="1" stop-color="#fff8f1"/></linearGradient><linearGradient id="b" x1="0.5" x2="0.5" y2="1" gradientUnits="objectBoundingBox"><stop offset="0" stop-color="#e67500"/><stop offset="1" stop-color="#f18719"/></linearGradient></defs><g transform="translate(-0.143 -0.276)"><g transform="translate(0.143 0.143)"><circle class="a" cx="27" cy="27" r="27" transform="translate(0 0.134)"/></g><g transform="translate(-93.857 -93.724)"><g transform="translate(105 105)"><path class="b" d="M126.839,122.091H105.949a.949.949,0,0,0-.949.949v.949h22.788v-.949A.949.949,0,0,0,126.839,122.091ZM105,136.334a.949.949,0,0,0,.949.949h20.889a.949.949,0,0,0,.949-.949v-6.647H105Zm3.8-3.8h6.456a.949.949,0,0,1,0,1.9H108.8a.949.949,0,1,1,0-1.9Zm-3.8-4.748h22.788v-1.9H105Zm2.177-9.773a.949.949,0,0,0,1.343,0l1.9-1.9a.949.949,0,0,0-1.343-1.343l-.278.278v-3.4a.95.95,0,0,1,.949-.949.949.949,0,1,0,0-1.9,2.852,2.852,0,0,0-2.849,2.849v3.4l-.278-.278a.949.949,0,0,0-1.343,1.343Zm27.929,6.253a.949.949,0,0,0-1.343,0l-1.9,1.9a.949.949,0,1,0,1.343,1.343l.278-.278v3.4a.95.95,0,0,1-.949.95.949.949,0,0,0,0,1.9,2.852,2.852,0,0,0,2.849-2.849v-3.4l.278.278a.949.949,0,1,0,1.343-1.343ZM136.334,105H115.445a.949.949,0,0,0-.949.949v13.293a.949.949,0,0,0,.949.949h20.889a.949.949,0,0,0,.949-.949V105.949A.949.949,0,0,0,136.334,105Zm-18.99,3.8a.949.949,0,0,1,.949-.949h5.7a.949.949,0,0,1,.949.949v3.8a.949.949,0,0,1-.949.95h-5.7a.949.949,0,0,1-.949-.95Zm3.608,8.546h-2.658a.949.949,0,1,1,0-1.9h2.658a.949.949,0,1,1,0,1.9Zm6.267,0H124.75a.949.949,0,1,1,0-1.9h2.469a.949.949,0,0,1,0,1.9Zm6.266,0h-2.468a.949.949,0,1,1,0-1.9h2.468a.949.949,0,0,1,0,1.9Zm0-7.6h-3.8a.949.949,0,1,1,0-1.9h3.8a.949.949,0,0,1,0,1.9Zm-10.445,0h-3.8v1.9h3.8Z" transform="translate(-105 -105)"/></g></g></g></svg>