<?xml version="1.0" encoding="UTF-8"?>
<svg width="54px" height="54px" viewBox="0 0 54 54" version="1.1" xmlns="http://www.w3.org/2000/svg" xmlns:xlink="http://www.w3.org/1999/xlink">
    <!-- Generator: Sketch 54.1 (76490) - https://sketchapp.com -->
    <title>internal_transfer</title>
    <desc>Created with Sketch.</desc>
    <defs>
        <linearGradient x1="50%" y1="100%" x2="50%" y2="0%" id="linearGradient-1">
            <stop stop-color="#FFE3C5" offset="0%"></stop>
            <stop stop-color="#FFF3E6" offset="74.5%"></stop>
            <stop stop-color="#FFF8F1" offset="100%"></stop>
        </linearGradient>
        <linearGradient x1="50%" y1="0%" x2="50%" y2="100%" id="linearGradient-2">
            <stop stop-color="#E67500" offset="0%"></stop>
            <stop stop-color="#F18719" offset="100%"></stop>
        </linearGradient>
    </defs>
    <g id="Page-1" stroke="none" stroke-width="1" fill="none" fill-rule="evenodd">
        <g id="internal_transfer" transform="translate(0.000000, -1.000000)" fill-rule="nonzero">
            <circle id="Oval" fill="url(#linearGradient-1)" cx="27" cy="28.001" r="27"></circle>
            <path d="M32.839,29.091 L11.949,29.091 C11.4248818,29.091 11,29.5158818 11,30.04 L11,30.989 L33.788,30.989 L33.788,30.04 C33.788,29.5158818 33.3631182,29.091 32.839,29.091 Z M11,43.334 C11,43.8581182 11.4248818,44.283 11.949,44.283 L32.838,44.283 C33.0896904,44.283 33.3310723,44.1830164 33.5090443,44.0050443 C33.6870164,43.8270723 33.787,43.5856904 33.787,43.334 L33.787,36.687 L11,36.687 L11,43.334 Z M14.8,39.534 L21.256,39.534 C21.7806705,39.534 22.206,39.9593295 22.206,40.484 C22.206,41.0086705 21.7806705,41.434 21.256,41.434 L14.8,41.434 C14.2753295,41.434 13.85,41.0086705 13.85,40.484 C13.85,39.9593295 14.2753295,39.534 14.8,39.534 L14.8,39.534 Z M11,34.786 L33.788,34.786 L33.788,32.886 L11,32.886 L11,34.786 Z M13.177,25.013 C13.3550089,25.1912509 13.5965862,25.2914116 13.8485,25.2914116 C14.1004138,25.2914116 14.3419911,25.1912509 14.52,25.013 L16.42,23.113 C16.7908592,22.7421408 16.7908592,22.1408592 16.42,21.77 C16.0491408,21.3991408 15.4478592,21.3991408 15.077,21.77 L14.799,22.048 L14.799,18.648 C14.7995512,18.1241102 15.2241102,17.6995512 15.748,17.699 C16.2726705,17.699 16.698,17.2736705 16.698,16.749 C16.698,16.2243295 16.2726705,15.799 15.748,15.799 C14.1752262,15.8006535 12.9006535,17.0752262 12.899,18.648 L12.899,22.048 L12.621,21.77 C12.2501408,21.3991408 11.6488592,21.3991408 11.278,21.77 C10.9071408,22.1408592 10.9071408,22.7421408 11.278,23.113 L13.177,25.013 Z M41.106,31.266 C40.9279911,31.0877491 40.6864138,30.9875884 40.4345,30.9875884 C40.1825862,30.9875884 39.9410089,31.0877491 39.763,31.266 L37.863,33.166 C37.6230961,33.4059038 37.529403,33.7555713 37.6172139,34.0832861 C37.7050248,34.4110008 37.9609992,34.6669752 38.2887139,34.7547861 C38.6164287,34.842597 38.9660962,34.7489039 39.206,34.509 L39.484,34.231 L39.484,37.631 C39.4840003,38.1552802 39.0592799,38.5804481 38.535,38.581 C38.0103295,38.581 37.585,39.0063295 37.585,39.531 C37.585,40.0556705 38.0103295,40.481 38.535,40.481 C40.1077738,40.4793465 41.3823465,39.2047738 41.384,37.632 L41.384,34.232 L41.662,34.51 C41.9019038,34.7499039 42.2515713,34.843597 42.5792861,34.7557861 C42.9070008,34.6679752 43.1629752,34.4120008 43.2507861,34.0842861 C43.338597,33.7565713 43.2449039,33.4069038 43.005,33.167 L41.106,31.266 Z M42.334,12 L21.445,12 C20.9208818,12 20.496,12.4248818 20.496,12.949 L20.496,26.242 C20.496,26.7661182 20.9208818,27.191 21.445,27.191 L42.334,27.191 C42.5856904,27.191 42.8270723,27.0910164 43.0050443,26.9130443 C43.1830164,26.7350723 43.283,26.4936904 43.283,26.242 L43.283,12.949 C43.283,12.4248818 42.8581182,12 42.334,12 L42.334,12 Z M23.344,15.8 C23.344,15.2758818 23.7688818,14.851 24.293,14.851 L29.993,14.851 C30.5171182,14.851 30.942,15.2758818 30.942,15.8 L30.942,19.6 C30.9422654,19.8518637 30.8423989,20.0935025 30.6643981,20.2716909 C30.4863973,20.4498792 30.2448638,20.5500001 29.993,20.55 L24.293,20.55 C24.0411362,20.5500001 23.7996027,20.4498792 23.6216019,20.2716909 C23.4436011,20.0935025 23.3437346,19.8518637 23.344,19.6 L23.344,15.8 Z M26.952,24.346 L24.294,24.346 C23.7693295,24.346 23.344,23.9206705 23.344,23.396 C23.344,22.8713295 23.7693295,22.446 24.294,22.446 L26.952,22.446 C27.4766705,22.446 27.902,22.8713295 27.902,23.396 C27.902,23.9206705 27.4766705,24.346 26.952,24.346 Z M33.219,24.346 L30.75,24.346 C30.2253295,24.346 29.8,23.9206705 29.8,23.396 C29.8,22.8713295 30.2253295,22.446 30.75,22.446 L33.219,22.446 C33.7436705,22.446 34.169,22.8713295 34.169,23.396 C34.169,23.9206705 33.7436705,24.346 33.219,24.346 L33.219,24.346 Z M39.485,24.346 L37.017,24.346 C36.4923295,24.346 36.067,23.9206705 36.067,23.396 C36.067,22.8713295 36.4923295,22.446 37.017,22.446 L39.485,22.446 C40.0096705,22.446 40.435,22.8713295 40.435,23.396 C40.435,23.9206705 40.0096705,24.346 39.485,24.346 Z M39.485,16.746 L35.685,16.746 C35.1603295,16.746 34.735,16.3206705 34.735,15.796 C34.735,15.2713295 35.1603295,14.846 35.685,14.846 L39.485,14.846 C40.0096705,14.846 40.435,15.2713295 40.435,15.796 C40.435,16.3206705 40.0096705,16.746 39.485,16.746 Z M29.04,16.746 L25.24,16.746 L25.24,18.646 L29.04,18.646 L29.04,16.746 Z" id="Shape" fill="url(#linearGradient-2)"></path>
        </g>
    </g>
</svg>