<svg xmlns="http://www.w3.org/2000/svg" xmlns:xlink="http://www.w3.org/1999/xlink" width="54" height="54" viewBox="0 0 54 54"><defs><style>.a{fill:url(#a);}.b{fill:url(#b);}.c{fill:url(#h);}</style><linearGradient id="a" x1="0.5" y1="1" x2="0.5" gradientUnits="objectBoundingBox"><stop offset="0" stop-color="#ffe3c5"/><stop offset="0.745" stop-color="#fff3e6"/><stop offset="1" stop-color="#fff8f1"/></linearGradient><linearGradient id="b" x1="0.5" x2="0.5" y2="4.5" gradientUnits="objectBoundingBox"><stop offset="0" stop-color="#e67500"/><stop offset="1" stop-color="#545454"/></linearGradient><linearGradient id="h" x1="-1.601" y1="4.569" x2="-1.385" y2="-3.438" gradientUnits="objectBoundingBox"><stop offset="0" stop-color="#e67500"/><stop offset="1" stop-color="#e67500"/></linearGradient></defs><g transform="translate(-0.143 -0.276)"><g transform="translate(0.143 0.143)"><circle class="a" cx="27" cy="27" r="27" transform="translate(0 0.134)"/></g><g transform="translate(12.143 11.247)"><g transform="translate(0)"><path class="b" d="M152,5.18l2.4-1.2a1.045,1.045,0,0,1,.84,0l2.4,1.2V0H152Z" transform="translate(-142.482)"/><path class="b" d="M126.7,182a2.789,2.789,0,0,0-2.425,1.412.937.937,0,0,1-.811.467H122v1.879h1.46a.937.937,0,0,1,.811.467,2.789,2.789,0,0,0,4.85,0,.937.937,0,0,1,.811-.467h1.46v-1.879h-1.46a.937.937,0,0,1-.811-.467A2.789,2.789,0,0,0,126.7,182Z" transform="translate(-114.361 -170.604)"/><path class="b" d="M196.888,93.726h0C196.879,93.721,196.879,93.721,196.888,93.726Z" transform="translate(-184.553 -87.854)"/><path class="b" d="M197,93.764Z" transform="translate(-184.662 -87.892)"/><path class="b" d="M196.981,93.773h0Z" transform="translate(-184.647 -87.9)"/><path class="b" d="M17.032,17.032h-.956a4.63,4.63,0,0,1-3.544,1.874h-.008c-.063,0-.126,0-.189,0A4.633,4.633,0,0,1,8.6,17.032H6.7a.939.939,0,0,1-.939-.939V12.336A.939.939,0,0,1,6.7,11.4H8.6a4.663,4.663,0,0,1,7.48,0h1.9a.939.939,0,0,1,.939.939v.939h2.04A2.822,2.822,0,0,1,23.606,11.4h.939V.939A.939.939,0,0,0,23.606,0H17.032c0,.675,0-2.321-.006,6.729a.959.959,0,0,1-.4.723.868.868,0,0,1-.928.094c-.179-.084-3.209-1.591-3.364-1.674-.111.055-.016.008,0,0L8.973,7.546a.867.867,0,0,1-.928-.094A1.014,1.014,0,0,1,7.639,6.7V0H.939A.939.939,0,0,0,0,.939V21.728a.939.939,0,0,0,.939.939H17.032Z" transform="translate(0)"/></g><g transform="translate(18.91 13.275)"><path class="c" d="M367.635,214.818a.939.939,0,0,1-.939.939h-3.757a.939.939,0,0,1-.939-.939v-1.879a.939.939,0,0,1,.939-.939H366.7a.939.939,0,0,1,.939.939Z" transform="translate(-358.243 -212)"/><path class="c" d="M315.15,242.939a.939.939,0,0,0-.939-.939h-.939v.939a2.821,2.821,0,0,1-2.818,2.818H306.7a2.821,2.821,0,0,1-2.818-2.818V242h-.939a.939.939,0,0,0-.939.939v15.028a.939.939,0,0,0,.939.939H314.21a.939.939,0,0,0,.939-.939Zm-8.178,5.911a.939.939,0,0,1,1.328,0l.275.275,1.214-1.214a.939.939,0,0,1,1.328,1.328l-1.878,1.878a.939.939,0,0,1-1.328,0l-.939-.939A.939.939,0,0,1,306.971,248.85Zm4.421,6.3h-5.636a.939.939,0,1,1,0-1.879h5.636a.939.939,0,0,1,0,1.879Z" transform="translate(-302 -240.122)"/></g></g></g></svg>