<?xml version="1.0" encoding="UTF-8"?>
<svg width="54px" height="54px" viewBox="0 0 54 54" version="1.1" xmlns="http://www.w3.org/2000/svg" xmlns:xlink="http://www.w3.org/1999/xlink">
    <!-- Generator: Sketch 54.1 (76490) - https://sketchapp.com -->
    <title>Group</title>
    <desc>Created with Sketch.</desc>
    <defs>
        <linearGradient x1="50%" y1="100%" x2="50%" y2="0%" id="linearGradient-1">
            <stop stop-color="#FFE3C5" offset="0%"></stop>
            <stop stop-color="#FFF3E6" offset="74.5%"></stop>
            <stop stop-color="#FFF8F1" offset="100%"></stop>
        </linearGradient>
        <linearGradient x1="50%" y1="0%" x2="50%" y2="450%" id="linearGradient-2">
            <stop stop-color="#E67500" offset="0%"></stop>
            <stop stop-color="#545454" offset="100%"></stop>
        </linearGradient>
        <linearGradient x1="50%" y1="0%" x2="50%" y2="450%" id="linearGradient-3">
            <stop stop-color="#E67500" offset="0%"></stop>
            <stop stop-color="#545454" offset="100%"></stop>
        </linearGradient>
        <linearGradient x1="50%" y1="0%" x2="50%" y2="450%" id="linearGradient-4">
            <stop stop-color="#E67500" offset="0%"></stop>
            <stop stop-color="#545454" offset="100%"></stop>
        </linearGradient>
        <linearGradient x1="50%" y1="0%" x2="50%" y2="450%" id="linearGradient-5">
            <stop stop-color="#E67500" offset="0%"></stop>
            <stop stop-color="#545454" offset="100%"></stop>
        </linearGradient>
        <linearGradient x1="-160.1%" y1="456.9%" x2="-138.5%" y2="-343.8%" id="linearGradient-6">
            <stop stop-color="#E67500" offset="0%"></stop>
            <stop stop-color="#E67500" offset="100%"></stop>
        </linearGradient>
        <linearGradient x1="-160.1%" y1="456.9%" x2="-138.5%" y2="-343.8%" id="linearGradient-7">
            <stop stop-color="#E67500" offset="0%"></stop>
            <stop stop-color="#E67500" offset="100%"></stop>
        </linearGradient>
    </defs>
    <g id="Page-1" stroke="none" stroke-width="1" fill="none" fill-rule="evenodd">
        <g id="Group" transform="translate(0.000000, 0.001000)" fill-rule="nonzero">
            <circle id="Oval" fill="url(#linearGradient-1)" cx="27" cy="27" r="27"></circle>
            <path d="M21.518,16.15 L23.918,14.95 C24.1856752,14.8325106 24.4903248,14.8325106 24.758,14.95 L27.158,16.15 L27.158,10.97 L21.518,10.97 L21.518,16.15 Z" id="Path" fill="url(#linearGradient-2)"></path>
            <path d="M24.339,22.366 C23.3355087,22.3661311 22.4094491,22.905346 21.914,23.778 C21.7463237,24.0671875 21.4372824,24.2451434 21.103,24.245 L19.639,24.245 L19.639,26.124 L21.099,26.124 C21.4332824,26.1238566 21.7423237,26.3018125 21.91,26.591 C22.405614,27.4634068 23.3316422,28.0023585 24.335,28.0023585 C25.3383578,28.0023585 26.264386,27.4634068 26.76,26.591 C26.9276763,26.3018125 27.2367176,26.1238566 27.571,26.124 L29.031,26.124 L29.031,24.245 L27.571,24.245 C27.2367176,24.2451434 26.9276763,24.0671875 26.76,23.778 C26.2652579,22.9065885 25.3410605,22.3675688 24.339,22.366 Z" id="Path" fill="url(#linearGradient-3)"></path>
            <path d="M24.335,16.842 L24.335,16.842 C24.326,16.837 24.326,16.837 24.335,16.842 Z" id="Path" fill="url(#linearGradient-4)"></path>
            <path d="M29.032,28.002 L28.076,28.002 C27.2403692,29.1322357 25.9365498,29.8216707 24.532,29.876 L24.524,29.876 C24.461,29.876 24.398,29.876 24.335,29.876 C22.8629878,29.8801549 21.4765963,29.1845464 20.6,28.002 L18.7,28.002 C18.1814046,28.002 17.761,27.5815954 17.761,27.063 L17.761,23.306 C17.7626531,22.7885766 18.1825739,22.3699974 18.7,22.37 L20.6,22.37 C21.4799559,21.1882803 22.866642,20.491954 24.34,20.491954 C25.813358,20.491954 27.2000441,21.1882803 28.08,22.37 L29.98,22.37 C30.4985954,22.37 30.919,22.7904046 30.919,23.309 L30.919,24.248 L32.959,24.248 C33.3570831,23.126488 34.4159446,22.3752444 35.606,22.37 L36.545,22.37 L36.545,11.909 C36.545,11.3904046 36.1245954,10.97 35.606,10.97 L29.032,10.97 C29.032,11.645 29.032,8.649 29.026,17.699 C29.0086502,17.9880275 28.8616429,18.2537432 28.626,18.422 C28.361212,18.6309955 27.9993192,18.6676527 27.698,18.516 C27.519,18.432 24.489,16.925 24.334,16.842 C24.223,16.897 24.318,16.85 24.334,16.842 L20.973,18.516 C20.6717278,18.6679067 20.3096911,18.6312349 20.045,18.422 C19.8054863,18.2433896 19.6569345,17.9682396 19.639,17.67 L19.639,10.97 L12.939,10.97 C12.4204046,10.97 12,11.3904046 12,11.909 L12,32.698 C12,33.2165954 12.4204046,33.637 12.939,33.637 L29.032,33.637 L29.032,28.002 Z" id="Path" fill="url(#linearGradient-5)"></path>
            <path d="M40.302,27.063 C40.302,27.3120383 40.2030699,27.5508766 40.0269733,27.7269733 C39.8508766,27.9030699 39.6120383,28.002 39.363,28.002 L35.606,28.002 C35.3569617,28.002 35.1181234,27.9030699 34.9420267,27.7269733 C34.7659301,27.5508766 34.667,27.3120383 34.667,27.063 L34.667,25.184 C34.667,24.6654046 35.0874046,24.245 35.606,24.245 L39.367,24.245 C39.8855954,24.245 40.306,24.6654046 40.306,25.184 L40.302,27.063 Z" id="Path" fill="url(#linearGradient-6)"></path>
            <path d="M44.06,27.062 C44.06,26.5434046 43.6395954,26.123 43.121,26.123 L42.182,26.123 L42.182,27.062 C42.1803465,28.617653 40.919653,29.8783465 39.364,29.88 L35.61,29.88 C34.054347,29.8783465 32.7936535,28.617653 32.792,27.062 L32.792,26.123 L31.853,26.123 C31.3344046,26.123 30.914,26.5434046 30.914,27.062 L30.914,42.09 C30.914,42.6085954 31.3344046,43.029 31.853,43.029 L43.12,43.029 C43.6385954,43.029 44.059,42.6085954 44.059,42.09 L44.06,27.062 Z M35.882,32.973 C36.0580988,32.796887 36.2969486,32.6979465 36.546,32.6979465 C36.7950514,32.6979465 37.0339012,32.796887 37.21,32.973 L37.485,33.248 L38.699,32.034 C39.0657171,31.6672829 39.6602829,31.6672829 40.027,32.034 C40.3937171,32.4007171 40.3937171,32.9952829 40.027,33.362 L38.149,35.24 C37.9729012,35.416113 37.7340514,35.5150535 37.485,35.5150535 C37.2359486,35.5150535 36.9970988,35.416113 36.821,35.24 L35.882,34.301 C35.7057543,34.1250338 35.606634,33.8862585 35.6064464,33.6372071 C35.6062589,33.3881557 35.7050195,33.1492314 35.881,32.973 L35.882,32.973 Z M40.303,39.273 L34.667,39.273 C34.1481285,39.273 33.7275,38.8523715 33.7275,38.3335 C33.7275,37.8146285 34.1481285,37.394 34.667,37.394 L40.303,37.394 C40.8218715,37.394 41.2425,37.8146285 41.2425,38.3335 C41.2425,38.8523715 40.8218715,39.273 40.303,39.273 L40.303,39.273 Z" id="Shape" fill="url(#linearGradient-7)"></path>
        </g>
    </g>
</svg>