<svg xmlns="http://www.w3.org/2000/svg" width="24" height="24" viewBox="0 0 24 24"><defs><style>.a,.b{fill:none;}.b{opacity:0.87;}.c{fill:#3f4446;}</style></defs><path class="a" d="M0,0H24V24H0Z"/><path class="b" d="M0,0H24V24H0Z"/><path class="c" d="M17.333,7.667h-.952v-1.9a4.762,4.762,0,0,0-9.524,0v1.9H5.9A1.91,1.91,0,0,0,4,9.571V19.1A1.91,1.91,0,0,0,5.9,21H17.333a1.91,1.91,0,0,0,1.9-1.9V9.571A1.91,1.91,0,0,0,17.333,7.667Zm-8.571-1.9a2.857,2.857,0,0,1,5.714,0v1.9H8.762ZM17.333,19.1H5.9V9.571H17.333Zm-5.714-2.857a1.9,1.9,0,1,0-1.9-1.9A1.91,1.91,0,0,0,11.619,16.238Z" transform="translate(0.385 0.506)"/></svg>