<svg id="Capa_1" enable-background="new 0 0 512 512" height="512" viewBox="0 0 512 512" width="512" xmlns="http://www.w3.org/2000/svg"><g><path d="m256 0 30 231-30 281c-141.493 0-256-114.497-256-256 0-141.493 114.497-256 256-256z" fill="#f66"/><path d="m512 256c0 141.493-114.497 256-256 256v-512c141.493 0 256 114.497 256 256z" fill="#e62e6b"/><path d="m256 78.22 20 138.78-20 177.38-95.22 21.05c-8.654 1.907-17.043-4.05-18.13-12.81l-12.45-101.15-46.61-83.46c-4.123-7.408-1.306-16.736 6.19-20.63l88.49-45.92 66.99-68.71c2.82-2.89 6.68-4.53 10.71-4.53z" fill="#fc6"/><path d="m428.44 217.95-46.16 83.52-12.94 101.22c-1.128 8.73-9.508 14.658-18.14 12.74l-94.96-21.1-.24.05v-316.16c4.07-.01 7.89 1.62 10.7 4.49l67.51 68.75 88.04 45.94c7.458 3.896 10.265 13.174 6.19 20.55z" fill="#ffa64d"/><path d="m256 229.01 7.667-14.343-7.667-15.657c-.18-.01-.35-.01-.53-.01h-31.74c-8.3 0-15 6.76-15 15v114c0 8.28 6.72 15 15 15s15-6.72 15-15v-34.6c6.2-.03 12.86-.06 16.74-.06.18 0 .35 0 .53-.01l5.667-16.33-5.667-13.67c-.17.01-.35.01-.53.01-3.87 0-10.45.03-16.6.06-.09-17.78-.03-11.88-.1-34.4h16.7c.18 0 .36 0 .53.01z" fill="#e62e6b"/><path d="m256 199.01v30c9.42.28 17.27 8.03 17.27 17.16 0 9.14-7.85 16.88-17.27 17.16v30c26.12-.28 47.27-21.33 47.27-47.16s-21.15-46.88-47.27-47.16z" fill="#b32453"/></g></svg>