<svg xmlns="http://www.w3.org/2000/svg" xmlns:xlink="http://www.w3.org/1999/xlink" width="54" height="54" viewBox="0 0 54 54"><defs><style>.a{fill:url(#a);}.b{fill:url(#b);}</style><linearGradient id="a" x1="0.5" y1="1" x2="0.5" gradientUnits="objectBoundingBox"><stop offset="0" stop-color="#ffe3c5"/><stop offset="0.745" stop-color="#fff3e6"/><stop offset="1" stop-color="#fff8f1"/></linearGradient><linearGradient id="b" x1="0.5" x2="0.5" y2="1" gradientUnits="objectBoundingBox"><stop offset="0" stop-color="#e67500"/><stop offset="1" stop-color="#f18719"/></linearGradient></defs><g transform="translate(-0.143 -0.276)"><g transform="translate(0.143 0.143)"><circle class="a" cx="27" cy="27" r="27" transform="translate(0 0.134)"/></g><g transform="translate(11.197 11.197)"><path class="b" d="M133.439,105a3.792,3.792,0,0,0-3.792,3.792v1.9h6.636a.948.948,0,0,0,.948-.948v-.948A3.792,3.792,0,0,0,133.439,105Zm-14.22,28.439H105.948a.939.939,0,0,0-.948.948,2.84,2.84,0,0,0,2.844,2.844h13.291a4.805,4.805,0,0,1-.967-2.844A.939.939,0,0,0,119.22,133.439Zm3.792-14.22h-5.688v1.9h5.688Zm-7.584,0h-1.9v1.9h1.9Zm7.584-7.584h-5.688v1.9h5.688Zm0,3.792h-5.688v1.9h5.688Zm-7.584,0h-1.9v1.9h1.9Zm-6.636-5.688v21.8H119.22a2.844,2.844,0,0,1,2.844,2.844,2.844,2.844,0,0,0,5.688,0v-25.6A5.644,5.644,0,0,1,129.231,105h-15.7A4.74,4.74,0,0,0,108.792,109.74Zm16.116.948v15.168a.947.947,0,0,1-.948.948H112.584a.947.947,0,0,1-.948-.948V110.688a.947.947,0,0,1,.948-.948h11.376A.947.947,0,0,1,124.907,110.688Zm-9.48.948h-1.9v1.9h1.9Zm7.584,11.376h-5.688v1.9h5.688Zm-7.584,0h-1.9v1.9h1.9Z" transform="translate(-105 -105)"/></g></g></svg>