<?xml version="1.0" encoding="UTF-8"?>
<svg width="54px" height="54px" viewBox="0 0 54 54" version="1.1" xmlns="http://www.w3.org/2000/svg" xmlns:xlink="http://www.w3.org/1999/xlink">
    <!-- Generator: Sketch 54.1 (76490) - https://sketchapp.com -->
    <title>receipt</title>
    <desc>Created with Sketch.</desc>
    <defs>
        <linearGradient x1="50%" y1="100%" x2="50%" y2="0%" id="linearGradient-1">
            <stop stop-color="#FFE3C5" offset="0%"></stop>
            <stop stop-color="#FFF3E6" offset="74.5%"></stop>
            <stop stop-color="#FFF8F1" offset="100%"></stop>
        </linearGradient>
        <linearGradient x1="50%" y1="0%" x2="50%" y2="100%" id="linearGradient-2">
            <stop stop-color="#E67500" offset="0%"></stop>
            <stop stop-color="#F18719" offset="100%"></stop>
        </linearGradient>
    </defs>
    <g id="Page-1" stroke="none" stroke-width="1" fill="none" fill-rule="evenodd">
        <g id="receipt" transform="translate(0.000000, -1.000000)" fill-rule="nonzero">
            <circle id="Oval" fill="url(#linearGradient-1)" cx="27" cy="28.001" r="27"></circle>
            <path d="M39.493,11.921 C37.3987362,11.921 35.701,13.6187362 35.701,15.713 L35.701,17.613 L42.337,17.613 C42.8605659,17.613 43.285,17.1885659 43.285,16.665 L43.285,15.717 C43.2860616,14.7106062 42.8870172,13.7450682 42.1757641,13.0330649 C41.4645111,12.3210616 40.4993944,11.9209994 39.493,11.921 L39.493,11.921 Z M25.273,40.36 L12.002,40.36 C11.7498381,40.3575713 11.5072969,40.4566695 11.3289832,40.6349832 C11.1506695,40.8132969 11.0515713,41.0558381 11.054,41.308 C11.0529364,42.0626012 11.3522297,42.7866019 11.8858139,43.3201861 C12.4193981,43.8537703 13.1433988,44.1530636 13.898,44.152 L27.189,44.1520028 C26.5710084,43.3317064 26.2321082,42.3349825 26.222,41.308 C26.2244287,41.0558381 26.1253305,40.8132969 25.9470168,40.6349832 C25.7687031,40.4566695 25.5261619,40.3575713 25.274,40.36 L25.273,40.36 Z M29.065,26.14 L23.377,26.14 L23.377,28.04 L29.065,28.04 L29.065,26.14 Z M21.481,26.14 L19.581,26.14 L19.581,28.04 L21.481,28.04 L21.481,26.14 Z M29.065,18.556 L23.377,18.556 L23.377,20.456 L29.065,20.456 L29.065,18.556 Z M29.065,22.348 L23.377,22.348 L23.377,24.248 L29.065,24.248 L29.065,22.348 Z M21.481,22.348 L19.581,22.348 L19.581,24.248 L21.481,24.248 L21.481,22.348 Z M14.845,16.66 L14.845,38.46 L25.274,38.46 C26.8446978,38.46 28.118,39.7333022 28.118,41.304 C28.118,42.8746978 29.3913022,44.148 30.962,44.148 C32.5326978,44.148 33.806,42.8746978 33.806,41.304 L33.806,15.704 C33.8124379,14.3031504 34.3396057,12.9547556 35.285,11.921 L19.585,11.921 C16.9675608,11.9215522 14.8459999,14.0435608 14.846,16.661 L14.845,16.66 Z M30.961,17.608 L30.961,32.776 C30.9612657,33.0275066 30.8614728,33.2687885 30.6836307,33.4466307 C30.5057885,33.6244728 30.2645066,33.7242657 30.013,33.724 L18.638,33.724 C18.3864934,33.7242657 18.1452115,33.6244728 17.9673693,33.4466307 C17.7895272,33.2687885 17.6897343,33.0275066 17.69,32.776 L17.69,17.609 C17.6897343,17.3574934 17.7895272,17.1162115 17.9673693,16.9383693 C18.1452115,16.7605272 18.3864934,16.6607343 18.638,16.661 L30.014,16.661 C30.2653334,16.6609999 30.5063582,16.76091 30.6839839,16.9387233 C30.8616096,17.1165366 30.9612654,17.3576668 30.961,17.609 L30.961,17.608 Z M21.481,18.556 L19.581,18.556 L19.581,20.456 L21.481,20.456 L21.481,18.556 Z M29.065,29.932 L23.377,29.932 L23.377,31.832 L29.065,31.832 L29.065,29.932 Z M21.481,29.932 L19.581,29.932 L19.581,31.832 L21.481,31.832 L21.481,29.932 Z" id="Shape" fill="url(#linearGradient-2)"></path>
        </g>
    </g>
</svg>