<svg xmlns="http://www.w3.org/2000/svg" width="24" height="24" viewBox="0 0 24 24"><defs><style>.a{fill:none;}.b{fill:#3f4446;}</style></defs><path class="a" d="M0,0H24V24H0Z"/><path class="b" d="M11,5.818a8.882,8.882,0,0,1,8.018,5,8.929,8.929,0,0,1-16.036,0,8.882,8.882,0,0,1,8.018-5M11,4A10.752,10.752,0,0,0,1,10.818a10.742,10.742,0,0,0,20,0A10.752,10.752,0,0,0,11,4Zm0,4.545a2.273,2.273,0,1,1-2.273,2.273A2.274,2.274,0,0,1,11,8.545m0-1.818a4.091,4.091,0,1,0,4.091,4.091A4.1,4.1,0,0,0,11,6.727Z" transform="translate(1 0.682)"/></svg>